#N canvas 458 221 450 300 12;
#X obj 215 45 loadbang;
#X obj 79 158 random;
#X obj 79 228 outlet;
#X obj 79 123 metro;
#X obj 215 70 t b b;
#X obj 225 108 \$1;
#X obj 287 106 \$2;
#X obj 344 107 \$3;
#X obj 225 133 sel 0;
#X obj 236 163 2000;
#X obj 287 131 sel 0;
#X obj 306 163 0;
#X obj 344 132 sel 0;
#X obj 361 183 127;
#X obj 322 247 --;
#X obj 79 193 +;
#X obj 376 158 + 1;
#X connect 0 0 4 0;
#X connect 1 0 15 0;
#X connect 3 0 1 0;
#X connect 4 0 3 0;
#X connect 4 1 5 0;
#X connect 4 1 6 0;
#X connect 4 1 7 0;
#X connect 5 0 8 0;
#X connect 6 0 10 0;
#X connect 7 0 12 0;
#X connect 8 0 9 0;
#X connect 8 1 9 0;
#X connect 9 0 3 1;
#X connect 10 0 11 0;
#X connect 10 1 11 0;
#X connect 11 0 14 1;
#X connect 11 0 15 1;
#X connect 12 0 13 0;
#X connect 12 1 16 0;
#X connect 13 0 14 0;
#X connect 14 0 1 1;
#X connect 15 0 2 0;
#X connect 16 0 13 0;
