#N canvas 0 36 683 671 12;
#X obj 72 270 dac~;
#X obj 86 211 pack f f f;
#X obj 206 191 list prepend all;
#X obj 206 216 list trim;
#X obj 206 90 loadbang;
#N canvas 683 36 683 671 randomness 1;
#X obj 156 521 makePair;
#X obj 156 546 outlet;
#X floatatom 370 149 5 0 0 0 - - - 0;
#X msg 370 172 rate \$1;
#X floatatom 370 199 5 0 0 0 - - - 0;
#X msg 370 223 min \$1;
#X floatatom 370 248 5 0 0 0 - - - 0;
#X msg 370 272 max \$1;
#X floatatom 354 579 5 0 0 0 - - - 0;
#X msg 368 296 next;
#X msg 368 321 prev;
#X obj 156 166 bng 15 250 50 0 empty empty empty 17 7 0 10 #fcfcfc
#000000 #000000;
#X floatatom 291 147 5 0 0 0 - - - 0;
#X msg 291 171 amount \$1;
#X floatatom 368 348 5 0 0 0 - - - 0;
#X msg 368 372 missBy \$1;
#X obj 156 453 scale 0 3 5 7 10;
#X floatatom 219 147 5 0 0 0 - - - 0;
#X msg 219 171 steps \$1;
#X msg 393 481 steps 64 \, amount 6 \, rate 125 \, min 10 \, max 35
\, missBy 20 \, bang, f 20;
#X obj 393 453 loadbang;
#X obj 94 55 autoRand 8000 4 64;
#X obj 479 235 autoRand 20000 0 1;
#X obj 479 305 autoRand 22000 0 1;
#X obj 355 556 autoRand 6000 20 120;
#X obj 257 62 autoRand 2000 1 6;
#X obj 478 378 autoRand 4000 0 30;
#X obj 403 105 chance 50;
#N canvas 458 221 450 300 chords 0;
#X msg 84 112 0 3 5 7 10;
#X msg 131 240 0 3 7 9 14;
#X msg 144 212 0 3 5 13;
#X text 171 110 pentatonic;
#X text 226 214 minor 9b;
#X text 222 237 minor 6th;
#X msg 99 143 0 3 7 10 14 20;
#X text 210 141 eolian minor 6th;
#X msg 114 180 0 4 7 11 14;
#X text 205 177 maj7 9;
#X obj 87 54 chance 20;
#X obj 87 29 autoRand 30000 0 4;
#X obj 87 79 sel 0 1 2 3 4;
#X obj 77 283 outlet;
#X connect 0 0 13 0;
#X connect 1 0 13 0;
#X connect 2 0 13 0;
#X connect 6 0 13 0;
#X connect 8 0 13 0;
#X connect 10 0 12 0;
#X connect 11 0 10 0;
#X connect 12 0 0 0;
#X connect 12 1 6 0;
#X connect 12 2 8 0;
#X connect 12 3 1 0;
#X connect 12 4 2 0;
#X restore 265 420 pd chords;
#X obj 156 490 +;
#X floatatom 55 442 5 0 0 0 - - - 0;
#X obj 55 400 autoRand 60000 -7 7, f 10;
#X obj 94 81 chance 25;
#X obj 257 88 chance 20;
#X obj 479 330 chance 50;
#X obj 479 260 chance 50;
#X obj 403 81 autoRand 30000 100 250;
#X obj 478 404 chance 25;
#X obj 156 425 randomSeq;
#X connect 0 0 1 0;
#X connect 2 0 3 0;
#X connect 3 0 38 0;
#X connect 4 0 5 0;
#X connect 5 0 38 0;
#X connect 6 0 7 0;
#X connect 7 0 38 0;
#X connect 8 0 0 1;
#X connect 9 0 38 0;
#X connect 10 0 38 0;
#X connect 11 0 38 0;
#X connect 12 0 13 0;
#X connect 13 0 38 0;
#X connect 14 0 15 0;
#X connect 15 0 38 0;
#X connect 16 0 29 0;
#X connect 17 0 18 0;
#X connect 18 0 38 0;
#X connect 19 0 38 0;
#X connect 20 0 19 0;
#X connect 21 0 32 0;
#X connect 22 0 35 0;
#X connect 23 0 34 0;
#X connect 24 0 8 0;
#X connect 25 0 33 0;
#X connect 26 0 37 0;
#X connect 27 0 2 0;
#X connect 28 0 16 1;
#X connect 29 0 0 0;
#X connect 30 0 29 1;
#X connect 31 0 30 0;
#X connect 32 0 17 0;
#X connect 33 0 12 0;
#X connect 34 0 10 0;
#X connect 35 0 9 0;
#X connect 36 0 27 0;
#X connect 37 0 14 0;
#X connect 38 0 16 0;
#X restore 86 131 pd randomness;
#X floatatom 424 138 8 0 0 0 - - - 0;
#X msg 424 162 cutoff \$1;
#X floatatom 445 204 5 0 0 0 - - - 0;
#X msg 445 228 Q \$1;
#X obj 427 68 hsl 128 15 0 1 0 0 empty empty empty -2 -8 0 10 #fcfcfc
#000000 #000000 0 1;
#X obj 424 88 pow 2;
#X obj 424 113 * 18000;
#X obj 259 298 hsl 128 15 0 1 0 0 empty empty empty -2 -8 0 10 #fcfcfc
#000000 #000000 0 1;
#X obj 256 319 pow 3;
#X obj 256 344 * 10000;
#X floatatom 256 369 10 0 0 0 - - - 0;
#X msg 256 393 env 5 3000 0.5 \$1;
#X obj 519 88 autoRand 4000 0 12000, f 12;
#X msg 206 116 osc detune 10 \, osc voices 4 \, env 5 3000 0.5 200
\, osc level 0.5 \, cutoff 12000 \, Q 6 \, glide 0, f 27;
#X obj 338 349 autoRand 7000 20 1200;
#X obj 508 282 hradio 15 1 0 3 empty empty empty 0 -8 0 10 #fcfcfc
#000000 #000000 0;
#X msg 508 304 osc waveform \$1;
#X obj 508 255 autoRand 30000 0 2;
#X obj 519 213 line;
#X msg 519 188 \$1 1000;
#X obj 519 132 chance 20;
#X obj 86 184 - 1;
#X obj 400 458 loadbang;
#X msg 400 483 \; pd dsp 1;
#X obj 86 236 clone voice~ 4;
#X obj 86 156 poly 4 1;
#X connect 1 0 30 0;
#X connect 2 0 3 0;
#X connect 3 0 30 0;
#X connect 4 0 19 0;
#X connect 5 0 31 0;
#X connect 6 0 7 0;
#X connect 7 0 2 0;
#X connect 8 0 9 0;
#X connect 9 0 2 0;
#X connect 10 0 11 0;
#X connect 11 0 12 0;
#X connect 12 0 6 0;
#X connect 13 0 14 0;
#X connect 14 0 15 0;
#X connect 15 0 16 0;
#X connect 16 0 17 0;
#X connect 17 0 2 0;
#X connect 18 0 26 0;
#X connect 19 0 2 0;
#X connect 20 0 16 0;
#X connect 21 0 22 0;
#X connect 22 0 2 0;
#X connect 23 0 21 0;
#X connect 24 0 6 0;
#X connect 25 0 24 0;
#X connect 26 0 25 0;
#X connect 27 0 1 0;
#X connect 28 0 29 0;
#X connect 30 0 0 0;
#X connect 30 0 0 1;
#X connect 31 0 27 0;
#X connect 31 1 1 1;
#X connect 31 2 1 2;
