#N canvas 518 117 450 439 12;
#X obj 211 13 inlet;
#X obj 126 58 unpack;
#X obj 126 83 mtof;
#X obj 165 84 / 127;
#X obj 115 304 vcf~ 1;
#X obj 122 339 vcf~ 1;
#X obj 161 370 *~;
#X obj 204 325 EG~;
#X obj 222 354 switch~;
#X obj 161 395 outlet~;
#X obj 211 38 route list;
#X obj 222 298 r \$0env;
#X obj 154 202 r \$0cutoff;
#X obj 154 227 lop~ 50;
#X obj 204 274 r \$0Q;
#X obj 278 63 broadcast \$0;
#X obj 46 159 r \$0osc;
#X obj 287 192 loadbang;
#X obj 287 217 \$0;
#X msg 287 242 \; \$1cutoff 8000 \;;
#X obj 115 179 analogOsc~ 1;
#X obj 200 116 r \$0glide;
#X obj 142 260 max~;
#X obj 126 115 pack f 0;
#X obj 126 140 line~;
#X connect 0 0 10 0;
#X connect 1 0 2 0;
#X connect 1 1 3 0;
#X connect 2 0 23 0;
#X connect 3 0 7 0;
#X connect 4 0 5 0;
#X connect 4 1 5 0;
#X connect 5 0 6 0;
#X connect 5 1 6 0;
#X connect 6 0 9 0;
#X connect 7 0 6 1;
#X connect 7 1 8 0;
#X connect 10 0 1 0;
#X connect 10 1 15 0;
#X connect 11 0 7 1;
#X connect 12 0 13 0;
#X connect 13 0 22 1;
#X connect 14 0 4 2;
#X connect 16 0 20 0;
#X connect 17 0 18 0;
#X connect 18 0 19 0;
#X connect 20 0 4 0;
#X connect 21 0 23 1;
#X connect 22 0 4 1;
#X connect 22 0 5 1;
#X connect 23 0 24 0;
#X connect 24 0 20 0;
#X connect 24 0 22 0;
