#N canvas 458 221 450 300 12;
#X obj 123 110 inlet~;
#X obj 123 135 *~;
#X obj 123 160 outlet~;
#X obj 219 61 loadbang;
#X obj 219 86 \$1;
#X obj 219 111 + 100;
#X obj 219 136 dbtorms;
#X connect 0 0 1 0;
#X connect 1 0 2 0;
#X connect 3 0 4 0;
#X connect 4 0 5 0;
#X connect 5 0 6 0;
#X connect 6 0 1 1;
